<?xml version="1.0" standalone="no"?>
<!DOCTYPE svg PUBLIC "-//W3C//DTD SVG 20010904//EN"
 "http://www.w3.org/TR/2001/REC-SVG-20010904/DTD/svg10.dtd">
<svg version="1.0" xmlns="http://www.w3.org/2000/svg"
 width="144.000000pt" height="144.000000pt" viewBox="0 0 144.000000 144.000000"
 preserveAspectRatio="xMidYMid meet">

<g transform="translate(0.000000,144.000000) scale(0.100000,-0.100000)"
fill="#000000" stroke="none">
<path d="M710 1161 c-25 -10 -71 -34 -102 -54 -84 -54 -149 -77 -221 -77 -110
0 -212 -68 -236 -157 -17 -62 -13 -83 8 -38 22 49 65 93 108 111 19 8 69 14
122 14 150 0 186 12 259 87 35 36 79 71 97 79 78 32 198 8 326 -65 l54 -31
-33 -6 c-32 -7 -52 -28 -52 -58 0 -12 14 -14 74 -13 60 1 79 -3 95 -17 41 -38
37 -133 -9 -186 -11 -13 -17 -26 -14 -29 11 -11 63 58 73 96 22 88 22 109 1
135 -11 15 -35 29 -55 32 -43 8 -37 26 8 24 18 0 47 8 65 19 l34 21 -49 5
c-26 3 -63 6 -81 6 -18 1 -72 22 -120 47 -135 70 -264 90 -352 55z"/>
<path d="M341 834 c-25 -31 -27 -76 -6 -98 20 -19 14 -22 -70 -32 -61 -7 -66
-8 -35 -14 l35 -6 -40 -7 c-22 -4 -59 -10 -83 -13 -25 -4 -41 -11 -39 -18 4
-13 114 -25 182 -19 46 4 800 5 940 1 170 -5 210 21 65 42 -60 9 -87 16 -83
24 4 6 0 5 -9 -2 -10 -8 -17 -9 -20 -3 -7 21 -142 33 -415 38 l-282 6 27 36
26 36 -26 -24 c-49 -43 -130 -43 -143 0 -9 28 12 59 40 59 24 0 51 -31 38 -44
-12 -12 -22 -6 -17 9 4 10 0 15 -11 15 -11 0 -15 -7 -13 -22 6 -47 100 -22
129 34 l12 23 -25 -22 c-31 -29 -46 -29 -70 2 -27 35 -79 34 -107 -1z"/>
<path d="M290 435 c0 -63 4 -105 10 -105 6 0 10 5 10 10 0 6 7 10 15 10 12 0
15 15 15 75 0 48 4 75 11 75 7 0 10 -28 8 -85 -2 -47 -1 -85 3 -85 11 0 17 35
21 110 l3 65 2 -75 c1 -43 7 -81 14 -88 15 -15 38 -16 38 -2 0 6 -7 10 -15 10
-8 0 -15 4 -15 9 0 5 7 11 15 15 10 4 15 20 15 51 0 57 -18 59 -23 3 -3 -38
-4 -37 -5 13 -2 43 2 58 13 63 17 6 21 36 5 36 -5 0 -10 -4 -10 -10 0 -14 -37
-12 -43 3 -4 9 -8 8 -17 -3 -9 -11 -13 -12 -17 -2 -2 6 -16 12 -29 12 -24 0
-24 -1 -24 -105z m27 33 c-2 -13 -4 -5 -4 17 -1 22 1 32 4 23 2 -10 2 -28 0
-40z m0 -90 c-2 -13 -4 -5 -4 17 -1 22 1 32 4 23 2 -10 2 -28 0 -40z"/>
<path d="M520 446 l0 -96 -30 0 c-16 0 -30 -4 -30 -10 0 -6 32 -10 75 -10 43
0 75 4 75 10 0 6 -16 10 -35 10 l-35 0 0 60 0 60 30 0 c17 0 30 5 30 10 0 6
-13 10 -30 10 -23 0 -30 5 -30 19 0 11 -4 23 -10 26 -6 4 -10 -28 -10 -89z"/>
<path d="M648 528 c-3 -7 -3 -34 0 -60 4 -45 6 -48 33 -48 19 0 29 -5 29 -15
0 -10 -11 -15 -35 -15 -19 0 -35 -4 -35 -10 0 -5 16 -10 35 -10 28 0 35 -4 35
-20 0 -11 5 -20 10 -20 6 0 10 9 10 20 0 15 7 20 24 20 14 0 28 5 31 10 4 6
-7 10 -24 10 -21 0 -31 5 -31 15 0 10 10 15 30 15 17 0 30 5 30 10 0 6 -13 10
-30 10 -20 0 -30 5 -30 15 0 8 -4 15 -10 15 -5 0 -10 -7 -10 -15 0 -8 -9 -15
-20 -15 -16 0 -20 7 -20 30 0 30 1 30 55 30 30 0 55 5 55 10 0 6 -25 10 -55
10 -30 0 -55 5 -55 10 0 14 -17 12 -22 -2z"/>
<path d="M880 520 c0 -26 -37 -27 -57 -2 -12 16 -13 15 -11 -8 2 -20 9 -26 36
-28 26 -3 32 -7 32 -28 0 -21 -5 -24 -35 -24 -19 0 -35 -4 -35 -10 0 -5 16
-10 35 -10 32 0 35 -2 35 -30 0 -28 -3 -30 -35 -30 -19 0 -35 -4 -35 -10 0 -6
32 -10 75 -10 43 0 75 4 75 10 0 6 -13 10 -30 10 -27 0 -30 3 -30 30 0 27 3
30 30 30 17 0 30 5 30 10 0 6 -13 10 -30 10 -25 0 -30 4 -30 25 0 21 5 25 30
25 17 0 30 5 30 10 0 6 -13 10 -30 10 -23 0 -30 4 -30 20 0 11 -4 20 -10 20
-5 0 -10 -9 -10 -20z"/>
<path d="M1068 533 c-50 -4 -65 -19 -26 -25 34 -5 37 -38 4 -38 -14 0 -26 -4
-26 -10 0 -5 11 -10 25 -10 16 0 25 -6 25 -15 0 -9 -9 -15 -25 -15 -23 0 -25
-4 -25 -46 l0 -45 53 3 52 3 3 43 c3 37 1 42 -17 42 -12 0 -21 7 -21 15 0 8 9
15 20 15 27 0 26 18 -2 22 -31 4 -34 26 -4 38 23 8 39 33 19 28 -5 -1 -29 -3
-55 -5z m42 -158 c0 -22 -4 -25 -35 -25 -31 0 -35 3 -35 25 0 22 4 25 35 25
31 0 35 -3 35 -25z"/>
<path d="M990 519 c0 -5 5 -7 10 -4 6 3 10 8 10 11 0 2 -4 4 -10 4 -5 0 -10
-5 -10 -11z"/>
<path d="M990 407 c0 -25 -3 -54 -7 -64 -6 -16 -5 -16 10 -4 13 10 16 24 12
59 -6 60 -15 66 -15 9z"/>
</g>
</svg>
